<svg viewBox="0 0 512 512" fill="none" xmlns="http://www.w3.org/2000/svg">
<path d="M22.5596 119.36L246.56 407.36C247.724 408.727 249.171 409.824 250.8 410.577C252.43 411.33 254.204 411.72 256 411.72C257.795 411.72 259.569 411.33 261.199 410.577C262.828 409.824 264.275 408.727 265.44 407.36L489.44 119.36C490.836 117.596 491.705 115.473 491.945 113.236C492.186 111 491.789 108.741 490.8 106.72C489.803 104.706 488.264 103.01 486.356 101.823C484.448 100.636 482.247 100.005 480 100L31.9996 100C29.7525 100.005 27.5513 100.636 25.6434 101.823C23.7355 103.01 22.1966 104.706 21.1996 106.72C20.2104 108.74 19.8132 111 20.0538 113.236C20.2945 115.473 21.1632 117.596 22.5596 119.36V119.36Z" fill="black"/>
</svg>
