<svg width="17" height="17" viewBox="0 0 17 17" xmlns="http://www.w3.org/2000/svg">
<g>
<path d="M12.7022 7.74881C12.6161 7.55863 12.427 7.4375 12.2187 7.4375H10.0937V0.53125C10.0937 0.238 9.85575 0 9.5625 0H7.4375C7.14425 0 6.90625 0.238 6.90625 0.53125V7.4375H4.78125C4.573 7.4375 4.38387 7.55969 4.29781 7.74881C4.21068 7.939 4.24468 8.16106 4.38175 8.31831L8.1005 12.5683C8.20143 12.6841 8.347 12.75 8.5 12.75C8.653 12.75 8.79856 12.6831 8.8995 12.5683L12.6182 8.31831C12.7564 8.16212 12.7882 7.939 12.7022 7.74881Z"/>
<path d="M14.3438 11.6875V14.875H2.65625V11.6875H0.53125V15.9375C0.53125 16.5251 1.00725 17 1.59375 17H15.4062C15.9938 17 16.4688 16.5251 16.4688 15.9375V11.6875H14.3438Z"/>
</g>
<defs>
<clipPath id="clip0_61_7749">
<rect width="17" height="17" fill="white"/>
</clipPath>
</defs>
</svg>
